<?xml version="1.0" encoding="utf-8"?>
<!-- Generator: Adobe Illustrator 17.0.0, SVG Export Plug-In . SVG Version: 6.00 Build 0)  -->
<!DOCTYPE svg PUBLIC "-//W3C//DTD SVG 1.1//EN" "http://www.w3.org/Graphics/SVG/1.1/DTD/svg11.dtd">
<svg version="1.1" id="Livello_1" xmlns="http://www.w3.org/2000/svg" xmlns:xlink="http://www.w3.org/1999/xlink" x="0px" y="0px"
	 width="950px" height="780px" viewBox="0 0 950 780" enable-background="new 0 0 950 780" xml:space="preserve">
<g>
	<path fill="#EAEEF0" d="M943.277,691.978c0,43.442-35.155,78.658-78.521,78.658H87.27c-43.366,0-78.521-35.217-78.521-78.658
		V88.022c0-43.442,35.155-78.658,78.521-78.658h777.486c43.366,0,78.521,35.217,78.521,78.658V691.978z"/>
	<circle fill="#BCBFC2" cx="192.85" cy="172.441" r="76.348"/>
	<polygon fill="#BCBFC2" points="887.82,446.656 686.531,161.235 438.22,466.162 305.997,349.293 64.206,630.779 64.206,712.238 
		887.82,712.238 	"/>
	<path fill="none" stroke="#BCBFC2" stroke-width="9" stroke-miterlimit="10" d="M941.251,691.978
		c0,43.442-35.155,78.658-78.521,78.658H85.244c-43.366,0-78.521-35.217-78.521-78.658V88.022c0-43.442,35.155-78.658,78.521-78.658
		h777.486c43.366,0,78.521,35.217,78.521,78.658V691.978z"/>
</g>
</svg>
